<svg width="573" height="199" viewBox="0 0 573 199" fill="none" xmlns="http://www.w3.org/2000/svg">
<path d="M513.27 160.536H56.6276C47.1395 160.536 39.3037 153.513 39.3037 144.917V44.1317C39.3037 35.5319 47.1395 28.5359 56.6276 28.5359H513.266C522.751 28.5359 530.634 35.5319 530.634 44.1317V144.917C530.634 153.513 522.751 160.536 513.27 160.536Z" fill="#A6A6A6"/>
<path d="M530.635 147.304C530.635 149.043 530.269 150.765 529.558 152.371C528.847 153.977 527.805 155.436 526.491 156.665C525.177 157.894 523.617 158.868 521.9 159.533C520.184 160.197 518.344 160.538 516.487 160.536H53.4689C49.7162 160.539 46.1155 159.148 43.4587 156.666C40.802 154.185 39.3068 150.817 39.3019 147.304V41.7849C39.3068 38.27 40.8014 34.9006 43.4576 32.4166C46.1138 29.9325 49.7145 28.5367 53.4689 28.5358H516.483C518.342 28.5358 520.182 28.8785 521.898 29.5444C523.615 30.2103 525.175 31.1863 526.489 32.4166C527.803 33.6469 528.845 35.1075 529.556 36.715C530.267 38.3224 530.632 40.0452 530.632 41.7849L530.635 147.304Z" fill="black"/>
<path d="M147.072 91.4112C146.965 79.6739 156.81 73.9637 157.26 73.6978C151.684 65.6751 143.042 64.5789 140.005 64.4915C132.746 63.7377 125.705 68.7778 122.007 68.7778C118.236 68.7778 112.541 64.5644 106.404 64.6882C98.5072 64.8083 91.1193 69.3205 87.0673 76.3272C78.7051 90.6137 84.9417 111.608 92.9533 123.156C96.961 128.812 101.644 135.127 107.774 134.905C113.77 134.661 116.01 131.132 123.247 131.132C130.417 131.132 132.521 134.905 138.772 134.762C145.208 134.661 149.26 129.081 153.127 123.375C157.759 116.892 159.619 110.509 159.692 110.181C159.545 110.13 147.193 105.479 147.072 91.4112V91.4112ZM135.263 56.8948C138.488 52.9144 140.695 47.4992 140.082 42.0038C135.414 42.2077 129.572 45.1867 126.214 49.0833C123.24 52.5138 120.583 58.1367 121.269 63.4245C126.513 63.8105 131.897 60.8134 135.263 56.8948V56.8948ZM202.485 134.092H195.311V87.6166H202.485V134.092ZM221.217 88.7309C219.313 95.3298 217.054 100.749 214.442 104.988L209.991 105.447C211.929 100.245 213.331 94.8648 214.176 89.3864L221.217 88.7309ZM256.356 134.092H248.717L244.532 121.117H229.985L226 134.092H218.56L232.974 89.9108H241.875L256.356 134.092V134.092ZM243.27 115.669L239.484 104.132C239.086 102.956 238.333 100.177 237.226 95.8068H237.093C236.65 97.686 235.941 100.461 234.967 104.132L231.247 115.669H243.27V115.669ZM293.418 117.767C293.418 123.185 291.934 127.468 288.964 130.615C286.307 133.415 283.007 134.81 279.066 134.81C274.815 134.81 271.759 133.302 269.9 130.287H269.767V147.068H262.593V112.715C262.591 109.218 262.502 105.721 262.327 102.227H268.637L269.036 107.278H269.169C271.56 103.473 275.191 101.575 280.063 101.575C283.871 101.575 287.048 103.061 289.595 106.033C292.145 109.008 293.418 112.916 293.418 117.767V117.767ZM286.111 118.032C286.111 114.93 285.402 112.373 283.985 110.366C282.435 108.269 280.354 107.22 277.741 107.22C275.97 107.22 274.361 107.799 272.926 108.961C271.486 110.115 270.545 111.634 270.102 113.513C269.881 114.387 269.77 115.108 269.77 115.676V120.986C269.77 123.306 270.49 125.261 271.929 126.853C273.368 128.448 275.239 129.245 277.542 129.245C280.243 129.245 282.347 128.218 283.853 126.164C285.358 124.107 286.111 121.401 286.111 118.032V118.032ZM330.553 117.767C330.553 123.185 329.07 127.468 326.099 130.615C323.446 133.415 320.147 134.81 316.202 134.81C311.95 134.81 308.895 133.302 307.035 130.287H306.906V147.068H299.728V112.715C299.728 109.303 299.643 105.811 299.47 102.227H305.777L306.171 107.278H306.308C308.699 103.473 312.327 101.575 317.198 101.575C321.01 101.575 324.184 103.061 326.734 106.033C329.276 109.008 330.553 112.916 330.553 117.767V117.767ZM323.243 118.032C323.243 114.93 322.538 112.373 321.117 110.366C319.567 108.269 317.486 107.22 314.877 107.22C313.106 107.22 311.497 107.799 310.061 108.961C308.619 110.115 307.621 111.721 307.234 113.513C307.009 114.387 306.902 115.108 306.902 115.676V120.986C306.902 123.306 307.622 125.261 309.057 126.853C310.5 128.448 312.371 129.245 314.67 129.245C317.372 129.245 319.479 128.218 320.984 126.164C322.486 124.107 323.243 121.401 323.243 118.032V118.032ZM372.062 121.707C372.062 125.461 370.737 128.521 368.091 130.884C365.172 133.462 361.105 134.752 355.895 134.752C351.071 134.752 347.208 133.834 344.289 131.998L345.946 126.099C349.067 127.973 352.658 128.95 356.312 128.918C359.013 128.918 361.12 128.317 362.626 127.111C364.131 125.909 364.888 124.3 364.888 122.286C364.888 120.491 364.268 118.983 363.028 117.756C361.788 116.532 359.725 115.392 356.85 114.34C349.008 111.452 345.086 107.227 345.086 101.67C345.086 98.0356 346.462 95.0603 349.208 92.7405C351.953 90.4207 355.607 89.259 360.172 89.259C364.246 89.259 367.63 89.9582 370.335 91.3566L368.541 97.1215C366.017 95.7668 363.157 95.0894 359.972 95.0894C357.448 95.0894 355.474 95.7012 354.06 96.9248C353.487 97.4251 353.03 98.0418 352.72 98.7325C352.411 99.4233 352.256 100.172 352.267 100.927C352.267 102.671 352.953 104.114 354.33 105.253C355.518 106.302 357.688 107.439 360.84 108.662C364.689 110.192 367.523 111.983 369.338 114.041C371.154 116.099 372.062 118.644 372.062 121.707V121.707ZM395.776 107.544H387.875V123.014C387.875 126.947 389.266 128.914 392.056 128.914C393.34 128.914 394.407 128.805 395.248 128.586L395.443 133.961C394.03 134.489 392.17 134.748 389.864 134.748C387.03 134.748 384.819 133.899 383.225 132.191C381.623 130.487 380.834 127.628 380.834 123.608V107.548H376.114V102.238H380.834V96.4041L387.875 94.3064V102.238H395.776V107.544V107.544ZM431.446 117.905C431.446 122.796 430.025 126.816 427.195 129.966C424.224 133.2 420.29 134.817 415.375 134.817C410.633 134.817 406.854 133.266 404.046 130.163C401.234 127.06 399.828 123.149 399.828 118.429C399.828 113.491 401.278 109.449 404.182 106.302C407.079 103.156 410.987 101.583 415.903 101.583C420.645 101.583 424.449 103.134 427.328 106.233C430.07 109.248 431.446 113.138 431.446 117.905V117.905ZM424.006 118.131C424.006 115.192 423.364 112.675 422.076 110.57C420.571 108.032 418.43 106.758 415.633 106.758C412.758 106.758 410.566 108.032 409.061 110.57C407.776 112.675 407.138 115.235 407.138 118.258C407.138 121.201 407.78 123.717 409.061 125.818C410.611 128.36 412.781 129.635 415.57 129.635C418.316 129.635 420.464 128.342 422.014 125.756C423.335 123.608 424.006 121.066 424.006 118.131V118.131ZM454.754 108.462C454.01 108.327 453.255 108.262 452.499 108.265C449.975 108.265 448.023 109.205 446.654 111.08C445.458 112.745 444.86 114.842 444.86 117.377V134.092H437.69L437.756 112.264C437.756 108.593 437.672 105.25 437.491 102.234H443.738L443.997 108.331H444.2C444.956 106.233 446.145 104.554 447.79 103.283C449.286 102.179 451.104 101.582 452.972 101.579C453.636 101.579 454.234 101.623 454.758 101.706V108.462H454.754ZM486.841 116.656C486.841 117.927 486.749 118.994 486.575 119.868H465.054C465.138 123.014 466.187 125.418 468.176 127.078C469.991 128.564 472.342 129.304 475.217 129.304C478.401 129.304 481.306 128.801 483.915 127.799L485.048 132.716C481.992 134.027 478.379 134.682 474.22 134.682C469.213 134.682 465.282 133.233 462.43 130.323C459.577 127.417 458.149 123.517 458.149 118.622C458.149 113.815 459.474 109.817 462.127 106.626C464.924 103.214 468.685 101.517 473.423 101.517C478.073 101.517 481.597 103.218 483.989 106.626C485.893 109.336 486.841 112.679 486.841 116.656V116.656ZM480.003 114.82C480.047 112.723 479.579 110.913 478.604 109.38C477.364 107.413 475.46 106.43 472.888 106.43C470.545 106.43 468.644 107.391 467.179 109.31C465.984 110.844 465.275 112.679 465.054 114.82H480.003V114.82ZM212.32 47.6885H205.412V68.2826H201.544V47.6885H194.673V44.4765H212.32V47.6885ZM231.292 58.8869C231.292 59.5715 231.24 60.1469 231.148 60.6167H219.549C219.597 62.3138 220.154 63.6066 221.228 64.5024C222.21 65.3036 223.472 65.7042 225.022 65.7042C226.741 65.7042 228.306 65.4347 229.712 64.8921L230.317 67.5433C228.671 68.2498 226.727 68.603 224.483 68.603C221.789 68.603 219.667 67.8201 218.128 66.2541C216.589 64.6882 215.822 62.5869 215.822 59.9503C215.822 57.361 216.534 55.2051 217.97 53.4862C219.472 51.6507 221.498 50.733 224.051 50.733C226.557 50.733 228.454 51.6507 229.742 53.4862C230.775 54.9429 231.292 56.7455 231.292 58.8869ZM227.601 57.9C227.652 56.8711 227.391 55.8507 226.852 54.9684C226.181 53.9086 225.158 53.3769 223.774 53.3769C223.171 53.3668 222.574 53.5034 222.037 53.7746C221.5 54.0458 221.038 54.4432 220.693 54.932C220.037 55.7955 219.64 56.8242 219.549 57.9H227.601V57.9ZM229.181 43.9084L224.848 49.0287H222.162L225.276 43.9084H229.181V43.9084ZM240.772 68.2826H236.905V43.2383H240.772V68.2826V68.2826ZM261.965 58.8869C261.965 59.5715 261.914 60.1469 261.821 60.6167H250.223C250.271 62.3138 250.828 63.6066 251.902 64.5024C252.884 65.3036 254.146 65.7042 255.696 65.7042C257.415 65.7042 258.98 65.4347 260.386 64.8921L260.991 67.5433C259.345 68.2498 257.4 68.603 255.157 68.603C252.463 68.603 250.341 67.8201 248.802 66.2541C247.263 64.6882 246.496 62.5869 246.496 59.9503C246.496 57.361 247.208 55.2051 248.643 53.4862C250.145 51.6507 252.171 50.733 254.725 50.733C257.231 50.733 259.128 51.6507 260.415 53.4862C261.452 54.9429 261.965 56.7455 261.965 58.8869ZM258.275 57.9C258.325 56.8711 258.065 55.8507 257.526 54.9684C256.854 53.9086 255.832 53.3769 254.448 53.3769C253.845 53.3668 253.248 53.5034 252.711 53.7746C252.173 54.0458 251.712 54.4432 251.367 54.932C250.71 55.7955 250.314 56.8242 250.223 57.9H258.275V57.9ZM259.855 43.9084L255.522 49.0287H252.839L255.954 43.9084H259.855V43.9084ZM280.004 51.5743L279.254 54.4695C278.202 53.9835 277.051 53.7418 275.889 53.763C274.195 53.763 272.852 54.3238 271.859 55.4418C270.87 56.5598 270.376 57.9801 270.376 59.699C270.376 61.5126 270.896 62.9474 271.933 64.0072C272.97 65.0669 274.291 65.5986 275.889 65.5986C277.081 65.5986 278.251 65.3655 279.395 64.8921L279.933 67.7545C278.668 68.3445 277.073 68.6395 275.136 68.6395C272.486 68.6395 270.376 67.8456 268.8 66.2541C267.224 64.6627 266.438 62.5395 266.438 59.8774C266.438 57.219 267.283 55.0303 268.977 53.3259C270.671 51.6216 272.948 50.7658 275.815 50.7658C277.439 50.7622 278.837 51.0317 280.004 51.5743ZM300.404 68.2826H296.54V58.5227C296.54 55.4454 295.374 53.905 293.03 53.905C291.244 53.905 290.012 54.7972 289.344 56.5817C289.215 57.0279 289.154 57.4906 289.163 57.9546V68.2789H285.295V43.2383H289.163V53.5845H289.237C290.458 51.7017 292.193 50.7622 294.466 50.7622C296.067 50.7622 297.385 51.2793 298.437 52.3172C299.747 53.61 300.404 55.5328 300.404 58.0748V68.2826V68.2826ZM320.239 68.2826H316.766L316.478 66.3051H316.371C315.183 67.882 313.489 68.6722 311.29 68.6722C309.648 68.6722 308.319 68.1515 307.319 67.1172C306.87 66.6518 306.518 66.1033 306.285 65.5033C306.051 64.9034 305.94 64.2637 305.957 63.6211C305.957 61.5235 306.843 59.9248 308.626 58.8177C310.404 57.7106 312.906 57.168 316.128 57.1935V56.873C316.128 54.6115 314.925 53.4825 312.515 53.4825C310.799 53.4825 309.286 53.9086 307.98 54.7535L307.194 52.248C308.81 51.2611 310.806 50.7658 313.161 50.7658C317.707 50.7658 319.988 53.1329 319.988 57.8672V64.1893C319.988 65.9045 320.073 67.2702 320.239 68.2826V68.2826ZM316.224 62.3829V59.7354C311.958 59.6626 309.825 60.817 309.825 63.1951C309.825 64.0909 310.068 64.761 310.567 65.2089C311.086 65.6632 311.762 65.9031 312.456 65.879C313.305 65.879 314.098 65.6132 314.822 65.0851C315.26 64.7812 315.617 64.3763 315.862 63.9054C316.106 63.4345 316.23 62.9119 316.224 62.3829ZM335.952 54.4731C335.551 54.3998 335.143 54.3644 334.734 54.3675C333.38 54.3675 332.328 54.8737 331.583 55.8861C330.941 56.782 330.616 57.9109 330.616 59.2765V68.2862H326.756L326.793 56.5234C326.793 54.5459 326.741 52.7433 326.649 51.1191H330.014L330.158 54.4039H330.265C330.668 53.2713 331.31 52.3645 332.195 51.6835C333.052 51.0717 333.982 50.7658 334.985 50.7658C335.347 50.7658 335.672 50.7877 335.952 50.835V54.4731V54.4731ZM356.138 51.1154C356.046 52.5066 355.994 54.1308 355.994 55.9917V65.8098C355.994 69.5062 355.157 72.0991 353.492 73.5813C351.964 74.9469 349.817 75.6279 347.049 75.6279C344.635 75.6279 342.687 75.18 341.211 74.2842L342.104 71.3526C343.562 72.2229 345.211 72.6599 347.049 72.6599C350.459 72.6599 352.167 70.8463 352.167 67.2192V65.5585H352.094C351.02 67.3029 349.311 68.1733 346.975 68.1733C345.985 68.1954 345.002 67.9936 344.103 67.5833C343.203 67.173 342.411 66.5651 341.787 65.8062C340.425 64.2293 339.746 62.2264 339.746 59.801C339.746 57.0478 340.532 54.8191 342.104 53.1257C343.562 51.5488 345.34 50.7585 347.436 50.7585C349.802 50.7585 351.496 51.6653 352.525 53.4789H352.592L352.736 51.1118H356.138V51.1154ZM352.134 60.9372V57.9C352.134 56.7455 351.765 55.7586 351.038 54.932C350.304 54.1053 349.344 53.6974 348.141 53.6974C346.824 53.6974 345.743 54.2364 344.89 55.3216C344.041 56.4069 343.613 57.8526 343.613 59.6662C343.613 61.3159 344.008 62.6452 344.802 63.6576C345.61 64.7646 346.724 65.3182 348.138 65.3182C349.001 65.3182 349.772 65.0669 350.459 64.5607C351.145 64.0545 351.625 63.3662 351.916 62.4958C352.06 62.0661 352.134 61.5454 352.134 60.9372V60.9372ZM377.188 58.8869C377.188 59.5715 377.136 60.1469 377.044 60.6167H365.445C365.497 62.3138 366.05 63.6066 367.124 64.5024C368.106 65.3036 369.372 65.7042 370.921 65.7042C372.637 65.7042 374.202 65.4347 375.612 64.8921L376.217 67.5433C374.567 68.2498 372.626 68.603 370.379 68.603C367.685 68.603 365.563 67.8201 364.028 66.2541C362.485 64.6882 361.722 62.5869 361.722 59.9503C361.722 57.361 362.434 55.2051 363.869 53.4862C365.368 51.6507 367.394 50.733 369.951 50.733C372.453 50.733 374.353 51.6507 375.638 53.4862C376.675 54.9429 377.188 56.7455 377.188 58.8869V58.8869ZM373.497 57.9C373.551 56.8707 373.29 55.8493 372.748 54.9684C372.077 53.9086 371.054 53.3769 369.67 53.3769C369.067 53.3668 368.471 53.5034 367.935 53.7746C367.398 54.0458 366.937 54.4433 366.593 54.932C365.937 55.796 365.539 56.8242 365.445 57.9H373.497V57.9ZM392.004 54.4731C391.603 54.3998 391.195 54.3644 390.786 54.3675C389.425 54.3675 388.38 54.8737 387.635 55.8861C386.993 56.782 386.668 57.9109 386.668 59.2765V68.2862H382.797L382.834 56.5234C382.834 54.5459 382.789 52.7433 382.697 51.1191H386.055L386.199 54.4039H386.306C386.669 53.3316 387.339 52.3864 388.236 51.6835C389.1 51.0717 390.03 50.7658 391.034 50.7658C391.388 50.7658 391.713 50.7877 392 50.835V54.4731H392.004ZM422.862 68.2826H419.423L419.242 65.5258H419.135C418.039 67.6234 416.179 68.6722 413.556 68.6722C411.452 68.6722 409.714 67.8601 408.33 66.2359C406.946 64.6117 406.256 62.5031 406.256 59.9139C406.256 57.1352 407.005 54.8846 408.503 53.1657C409.961 51.5633 411.755 50.7622 413.873 50.7622C416.216 50.7622 417.851 51.5379 418.781 53.0929H418.855V43.2383H422.718V63.6576C422.718 65.3291 422.766 66.8696 422.862 68.2826V68.2826ZM418.855 61.0428V58.1804C418.893 57.5193 418.776 56.8584 418.514 56.249C418.252 55.6395 417.85 55.0979 417.342 54.6661C416.629 54.0449 415.706 53.7108 414.755 53.7302C413.319 53.7302 412.19 54.2946 411.36 55.4272C410.529 56.5598 410.12 58.0056 410.12 59.7718C410.12 61.4689 410.515 62.8455 411.308 63.9052C412.146 65.0341 413.268 65.5986 414.681 65.5986C415.951 65.5986 416.973 65.1288 417.737 64.1856C418.478 63.3152 418.855 62.2664 418.855 61.0428V61.0428ZM442.617 68.2826H439.144L438.864 66.3051H438.757C437.561 67.882 435.867 68.6722 433.675 68.6722C432.025 68.6722 430.697 68.1515 429.697 67.1172C429.249 66.6514 428.898 66.1027 428.666 65.5027C428.433 64.9027 428.323 64.2632 428.343 63.6211C428.343 61.5235 429.228 59.9248 431.011 58.8177C432.782 57.7106 435.284 57.168 438.506 57.1935V56.873C438.506 54.6115 437.303 53.4825 434.9 53.4825C433.184 53.4825 431.671 53.9086 430.361 54.7535L429.575 52.248C431.195 51.2611 433.188 50.7658 435.542 50.7658C440.096 50.7658 442.369 53.1329 442.369 57.8672V64.1893C442.366 65.9045 442.451 67.2702 442.617 68.2826V68.2826ZM438.609 62.3829V59.7354C434.336 59.6626 432.203 60.817 432.203 63.1951C432.203 64.0909 432.454 64.761 432.952 65.2089C433.468 65.6631 434.142 65.9031 434.834 65.879C435.69 65.879 436.476 65.6132 437.207 65.0851C437.644 64.7801 438.001 64.375 438.245 63.9043C438.489 63.4337 438.614 62.9117 438.609 62.3829V62.3829ZM464.238 68.2826H460.367V58.4499C460.367 55.4199 459.201 53.905 456.865 53.905C456.333 53.8901 455.805 53.9949 455.32 54.2113C454.836 54.4277 454.407 54.7501 454.068 55.1541C453.359 55.9736 452.977 57.0196 452.994 58.0966V68.2789H449.13V56.0208C449.13 54.5132 449.078 52.878 448.986 51.1081H452.389L452.569 53.7921H452.676C453.123 52.9581 453.795 52.2698 454.68 51.7199C455.725 51.079 456.902 50.7549 458.182 50.7549C459.81 50.7549 461.16 51.272 462.234 52.3099C463.566 53.5809 464.238 55.4782 464.238 57.9983V68.2826V68.2826ZM481.675 63.3517C481.675 64.9467 481.077 66.2286 479.889 67.1937C478.693 68.1587 477.047 68.6395 474.944 68.6395C472.962 68.6395 471.283 68.2498 469.899 67.4741L470.722 64.6481C472.062 65.4493 473.482 65.8499 474.981 65.8499C476.962 65.8499 477.951 65.1325 477.951 63.694C477.961 63.4021 477.909 63.1115 477.798 62.8406C477.688 62.5697 477.521 62.3246 477.309 62.1207C476.877 61.7092 476.113 61.3014 475.017 60.9044C471.918 59.7718 470.368 58.1258 470.368 55.9589C470.368 54.4767 470.936 53.2385 472.084 52.248C473.231 51.2574 474.744 50.7658 476.63 50.7658C478.346 50.7658 479.815 51.1118 481.033 51.8037L480.202 54.5459C479.137 53.9021 477.912 53.5607 476.663 53.559C475.848 53.559 475.213 53.7484 474.759 54.1235C474.542 54.2979 474.368 54.5187 474.251 54.7692C474.133 55.0197 474.075 55.2932 474.08 55.5693C474.08 56.1556 474.316 56.6363 474.792 57.0114C475.202 57.3646 475.988 57.7507 477.158 58.1731C480.169 59.2984 481.675 61.0246 481.675 63.3517Z" fill="white"/>
</svg>
