<svg width="487" height="143" viewBox="0 0 487 143" fill="none" xmlns="http://www.w3.org/2000/svg">
<g clip-path="url(#clip0_58_15)">
<path d="M469.174 142.47H17.8197C8.44148 142.47 0.696411 134.916 0.696411 125.668V17.2473C0.696411 7.99597 8.44148 0.469971 17.8197 0.469971H469.17C478.545 0.469971 486.337 7.99597 486.337 17.2473V125.668C486.337 134.916 478.545 142.47 469.174 142.47Z" fill="#A6A6A6"/>
<path d="M482.855 125.671C482.855 127.458 482.498 129.227 481.805 130.878C481.111 132.528 480.095 134.028 478.814 135.291C477.533 136.553 476.013 137.555 474.339 138.237C472.666 138.919 470.873 139.27 469.063 139.268H17.7082C14.05 139.272 10.54 137.841 7.95021 135.292C5.3604 132.742 3.90284 129.281 3.89807 125.671V17.2437C3.90284 13.632 5.35982 10.1697 7.94911 7.61715C10.5384 5.0646 14.0483 3.63039 17.7082 3.62946H469.059C470.87 3.62946 472.664 3.98162 474.338 4.66585C476.011 5.35007 477.532 6.35295 478.813 7.61719C480.094 8.88144 481.109 10.3823 481.802 12.034C482.495 13.6858 482.852 15.456 482.851 17.2437L482.855 125.671Z" fill="black"/>
<path d="M109.189 70.7031C109.084 59.2615 118.682 53.6951 119.121 53.4359C113.685 45.6153 105.26 44.5467 102.3 44.4615C95.2236 43.7267 88.3599 48.6399 84.7554 48.6399C81.0789 48.6399 75.5282 44.5325 69.5458 44.6532C61.8475 44.7704 54.6457 49.1688 50.6958 55.999C42.5442 69.9257 48.6237 90.3914 56.4335 101.648C60.3403 107.162 64.9053 113.317 70.8805 113.101C76.7261 112.863 78.9097 109.423 85.9641 109.423C92.9537 109.423 95.0042 113.101 101.098 112.962C107.372 112.863 111.322 107.424 115.092 101.862C119.606 95.5425 121.419 89.3193 121.491 88.9998C121.348 88.9501 109.307 84.4168 109.189 70.7031V70.7031ZM97.677 37.0562C100.821 33.1761 102.972 27.8972 102.375 22.5403C97.8245 22.7391 92.1299 25.643 88.8564 29.4415C85.9569 32.7856 83.3668 38.2668 84.0359 43.4214C89.1477 43.7977 94.3963 40.876 97.677 37.0562V37.0562ZM163.206 112.309H156.213V67.004H163.206V112.309ZM181.466 68.0903C179.61 74.5229 177.408 79.8053 174.862 83.9375L170.523 84.3848C172.412 79.3146 173.778 74.0697 174.603 68.7293L181.466 68.0903ZM215.72 112.309H208.274L204.194 99.6605H190.014L186.128 112.309H178.876L192.927 69.2405H201.604L215.72 112.309V112.309ZM202.964 94.3497L199.273 83.1033C198.885 81.9566 198.151 79.248 197.072 74.988H196.942C196.51 76.8198 195.82 79.5249 194.87 83.1033L191.244 94.3497H202.964V94.3497ZM251.848 96.3945C251.848 101.677 250.402 105.852 247.506 108.919C244.916 111.649 241.7 113.009 237.858 113.009C233.714 113.009 230.735 111.539 228.922 108.599H228.793V124.958H221.8V91.4706C221.797 88.0611 221.711 84.6521 221.541 81.2466H227.692L228.081 86.1705H228.21C230.541 82.4607 234.081 80.6112 238.829 80.6112C242.542 80.6112 245.639 82.0596 248.121 84.9564C250.607 87.8567 251.848 91.6659 251.848 96.3945V96.3945ZM244.725 96.6536C244.725 93.629 244.035 91.1369 242.653 89.1809C241.143 87.1361 239.114 86.1137 236.567 86.1137C234.84 86.1137 233.272 86.6782 231.872 87.8106C230.469 88.936 229.552 90.4163 229.12 92.2481C228.904 93.1001 228.796 93.803 228.796 94.3568V99.5327C228.796 101.794 229.498 103.7 230.901 105.252C232.304 106.807 234.128 107.584 236.372 107.584C239.006 107.584 241.056 106.583 242.524 104.581C243.992 102.575 244.725 99.9374 244.725 96.6536V96.6536ZM288.048 96.3945C288.048 101.677 286.602 105.852 283.706 108.919C281.12 111.649 277.904 113.009 274.058 113.009C269.914 113.009 266.935 111.539 265.122 108.599H264.996V124.958H258V91.4706C258 88.1443 257.917 84.7398 257.748 81.2466H263.896L264.281 86.1705H264.414C266.745 82.4607 270.281 80.6112 275.029 80.6112C278.746 80.6112 281.839 82.0596 284.325 84.9564C286.804 87.8567 288.048 91.6659 288.048 96.3945V96.3945ZM280.922 96.6536C280.922 93.629 280.235 91.1369 278.85 89.1809C277.339 87.1361 275.31 86.1137 272.767 86.1137C271.04 86.1137 269.472 86.6782 268.072 87.8106C266.667 88.9354 265.694 90.5015 265.317 92.2481C265.097 93.1001 264.993 93.803 264.993 94.3568V99.5327C264.993 101.794 265.694 103.7 267.094 105.252C268.5 106.807 270.324 107.584 272.565 107.584C275.199 107.584 277.253 106.583 278.72 104.581C280.184 102.575 280.922 99.9374 280.922 96.6536V96.6536ZM328.511 100.236C328.511 103.896 327.22 106.878 324.64 109.182C321.795 111.695 317.831 112.952 312.751 112.952C308.049 112.952 304.283 112.057 301.438 110.268L303.053 104.517C306.096 106.344 309.596 107.296 313.158 107.265C315.791 107.265 317.845 106.679 319.313 105.504C320.78 104.332 321.518 102.763 321.518 100.8C321.518 99.0499 320.914 97.5802 319.705 96.3838C318.496 95.191 316.485 94.0799 313.683 93.0539C306.039 90.2388 302.215 86.1208 302.215 80.7035C302.215 77.1606 303.556 74.2602 306.233 71.9989C308.909 69.7375 312.471 68.6051 316.92 68.6051C320.892 68.6051 324.191 69.2867 326.828 70.6499L325.079 76.2695C322.619 74.9489 319.831 74.2886 316.726 74.2886C314.266 74.2886 312.341 74.885 310.963 76.0778C310.404 76.5655 309.959 77.1666 309.657 77.84C309.355 78.5134 309.204 79.2431 309.215 79.9793C309.215 81.6797 309.884 83.0855 311.226 84.1967C312.384 85.2191 314.499 86.3267 317.572 87.5195C321.324 89.0105 324.086 90.7571 325.856 92.7628C327.626 94.7686 328.511 97.2501 328.511 100.236V100.236ZM351.628 86.4297H343.926V101.51C343.926 105.344 345.282 107.261 348.001 107.261C349.253 107.261 350.293 107.155 351.113 106.942L351.304 112.181C349.926 112.696 348.113 112.948 345.865 112.948C343.102 112.948 340.947 112.121 339.393 110.456C337.832 108.795 337.062 106.008 337.062 102.089V86.4332H332.461V81.2573H337.062V75.5702L343.926 73.5254V81.2573H351.628V86.4297V86.4297ZM386.399 96.5294C386.399 101.297 385.014 105.216 382.255 108.287C379.359 111.439 375.525 113.016 370.733 113.016C366.11 113.016 362.427 111.503 359.689 108.479C356.948 105.454 355.577 101.641 355.577 97.0406C355.577 92.2268 356.991 88.2863 359.822 85.2191C362.646 82.1519 366.456 80.6183 371.247 80.6183C375.87 80.6183 379.579 82.1306 382.385 85.1516C385.058 88.091 386.399 91.8824 386.399 96.5294V96.5294ZM379.147 96.7495C379.147 93.8846 378.521 91.4316 377.266 89.3797C375.798 86.9053 373.712 85.6628 370.985 85.6628C368.183 85.6628 366.046 86.9053 364.578 89.3797C363.326 91.4316 362.704 93.9272 362.704 96.8737C362.704 99.7421 363.33 102.195 364.578 104.244C366.089 106.721 368.204 107.964 370.924 107.964C373.6 107.964 375.694 106.704 377.205 104.183C378.493 102.089 379.147 99.6108 379.147 96.7495V96.7495ZM409.12 87.3242C408.395 87.1931 407.659 87.129 406.922 87.1325C404.462 87.1325 402.559 88.0484 401.224 89.8767C400.059 91.499 399.476 93.5438 399.476 96.0146V112.309H392.486L392.551 91.0304C392.551 87.452 392.468 84.1932 392.292 81.2537H398.382L398.634 87.1964H398.832C399.569 85.1516 400.728 83.5151 402.332 82.2761C403.79 81.2 405.562 80.6173 407.383 80.6147C408.03 80.6147 408.613 80.6573 409.124 80.739V87.3242H409.12ZM440.399 95.3117C440.399 96.5507 440.309 97.5908 440.14 98.4428H419.16C419.243 101.51 420.265 103.853 422.204 105.472C423.974 106.92 426.265 107.641 429.068 107.641C432.172 107.641 435.003 107.151 437.546 106.175L438.651 110.967C435.672 112.245 432.15 112.884 428.096 112.884C423.215 112.884 419.383 111.471 416.603 108.635C413.822 105.802 412.43 102 412.43 97.2288C412.43 92.5428 413.721 88.6448 416.308 85.535C419.035 82.2087 422.7 80.5544 427.319 80.5544C431.852 80.5544 435.287 82.2122 437.618 85.535C439.475 88.1762 440.399 91.4351 440.399 95.3117V95.3117ZM433.733 93.5225C433.776 91.4777 433.32 89.7134 432.37 88.2188C431.161 86.3018 429.305 85.3434 426.798 85.3434C424.513 85.3434 422.661 86.2805 421.233 88.1514C420.067 89.6459 419.376 91.4351 419.16 93.5225H433.733V93.5225ZM172.793 28.0818H166.059V48.1571H162.289V28.0818H155.591V24.9507H172.793V28.0818ZM191.287 38.9981C191.287 39.6655 191.237 40.2264 191.147 40.6843H179.84C179.887 42.3386 180.43 43.5989 181.477 44.4722C182.434 45.2532 183.664 45.6437 185.175 45.6437C186.851 45.6437 188.377 45.381 189.747 44.852L190.337 47.4364C188.733 48.1251 186.837 48.4695 184.65 48.4695C182.024 48.4695 179.955 47.7062 178.455 46.1797C176.955 44.6532 176.207 42.6049 176.207 40.0347C176.207 37.5106 176.901 35.409 178.301 33.7334C179.765 31.9442 181.74 31.0496 184.229 31.0496C186.672 31.0496 188.521 31.9442 189.776 33.7334C190.783 35.1534 191.287 36.9107 191.287 38.9981ZM187.69 38.036C187.739 37.0331 187.484 36.0384 186.959 35.1783C186.305 34.1452 185.308 33.6269 183.959 33.6269C183.371 33.6171 182.789 33.7502 182.265 34.0146C181.742 34.2789 181.292 34.6664 180.955 35.1428C180.316 35.9846 179.929 36.9874 179.84 38.036H187.69V38.036ZM189.229 24.3969L185.006 29.3882H182.387L185.423 24.3969H189.229V24.3969ZM200.529 48.1571H196.759V23.7437H200.529V48.1571V48.1571ZM221.188 38.9981C221.188 39.6655 221.138 40.2264 221.048 40.6843H209.741C209.788 42.3386 210.331 43.5989 211.378 44.4722C212.335 45.2532 213.565 45.6437 215.076 45.6437C216.753 45.6437 218.278 45.381 219.648 44.852L220.238 47.4364C218.634 48.1251 216.738 48.4695 214.551 48.4695C211.925 48.4695 209.856 47.7062 208.356 46.1797C206.856 44.6532 206.108 42.6049 206.108 40.0347C206.108 37.5106 206.802 35.409 208.202 33.7334C209.666 31.9442 211.641 31.0496 214.13 31.0496C216.573 31.0496 218.422 31.9442 219.677 33.7334C220.688 35.1534 221.188 36.9107 221.188 38.9981ZM217.591 38.036C217.64 37.0331 217.386 36.0384 216.86 35.1783C216.206 34.1452 215.209 33.6269 213.86 33.6269C213.272 33.6171 212.69 33.7502 212.167 34.0146C211.643 34.2789 211.193 34.6664 210.857 35.1428C210.217 35.9846 209.83 36.9874 209.741 38.036H217.591V38.036ZM219.13 24.3969L214.907 29.3882H212.292L215.328 24.3969H219.13V24.3969ZM238.772 31.8697L238.042 34.6919C237.016 34.2182 235.893 33.9826 234.761 34.0032C233.11 34.0032 231.8 34.5499 230.833 35.6398C229.868 36.7296 229.386 38.1141 229.386 39.7897C229.386 41.5576 229.894 42.9563 230.904 43.9894C231.915 45.0224 233.203 45.5407 234.761 45.5407C235.923 45.5407 237.063 45.3135 238.178 44.852L238.704 47.6423C237.47 48.2174 235.916 48.505 234.027 48.505C231.444 48.505 229.386 47.7311 227.85 46.1797C226.314 44.6284 225.548 42.5587 225.548 39.9637C225.548 37.3722 226.372 35.2386 228.023 33.5772C229.674 31.9158 231.894 31.0816 234.689 31.0816C236.272 31.078 237.635 31.3407 238.772 31.8697ZM258.658 48.1571H254.892V38.6431C254.892 35.6433 253.755 34.1417 251.47 34.1417C249.729 34.1417 248.528 35.0114 247.877 36.7509C247.751 37.1859 247.692 37.637 247.7 38.0893V48.1535H243.93V23.7437H247.7V33.8293H247.772C248.963 31.9939 250.654 31.078 252.87 31.078C254.431 31.078 255.715 31.5821 256.741 32.5939C258.018 33.8541 258.658 35.7285 258.658 38.2064V48.1571V48.1571ZM277.994 48.1571H274.609L274.328 46.2294H274.224C273.065 47.7666 271.414 48.5369 269.27 48.5369C267.669 48.5369 266.374 48.0293 265.399 47.0211C264.961 46.5674 264.619 46.0327 264.391 45.4479C264.163 44.863 264.055 44.2394 264.072 43.6131C264.072 41.5683 264.935 40.0098 266.673 38.9306C268.407 37.8514 270.846 37.3225 273.986 37.3473V37.0349C273.986 34.8304 272.813 33.7299 270.464 33.7299C268.792 33.7299 267.317 34.1452 266.043 34.9688L265.277 32.5264C266.853 31.5644 268.799 31.0816 271.094 31.0816C275.526 31.0816 277.749 33.3891 277.749 38.0041V44.1669C277.749 45.8389 277.832 47.1702 277.994 48.1571V48.1571ZM274.08 42.4061V39.8252C269.921 39.7542 267.842 40.8796 267.842 43.1977C267.842 44.071 268.079 44.7242 268.565 45.1609C269.071 45.6037 269.731 45.8376 270.407 45.8141C271.234 45.8141 272.008 45.5549 272.713 45.0402C273.141 44.744 273.489 44.3492 273.727 43.8902C273.965 43.4312 274.086 42.9218 274.08 42.4061ZM293.311 34.6955C292.92 34.624 292.522 34.5895 292.124 34.5925C290.804 34.5925 289.779 35.086 289.052 36.0729C288.426 36.9462 288.109 38.0467 288.109 39.3779V48.1606H284.347L284.383 36.6941C284.383 34.7665 284.332 33.0092 284.242 31.4259H287.523L287.663 34.628H287.768C288.16 33.524 288.786 32.64 289.649 31.9762C290.484 31.3798 291.39 31.0816 292.369 31.0816C292.721 31.0816 293.038 31.1029 293.311 31.149V34.6955V34.6955ZM312.989 31.4224C312.899 32.7785 312.848 34.3618 312.848 36.1758V45.7466C312.848 49.3499 312.032 51.8775 310.409 53.3223C308.92 54.6536 306.826 55.3174 304.128 55.3174C301.776 55.3174 299.876 54.8808 298.437 54.0075L299.308 51.1497C300.729 51.9982 302.337 52.4242 304.128 52.4242C307.452 52.4242 309.118 50.6563 309.118 47.1205V45.5017H309.046C307.999 47.2021 306.334 48.0506 304.056 48.0506C303.091 48.0721 302.133 47.8754 301.256 47.4755C300.38 47.0755 299.607 46.4829 298.999 45.7431C297.671 44.2059 297.009 42.2534 297.009 39.8891C297.009 37.2053 297.775 35.0327 299.308 33.382C300.729 31.8448 302.463 31.0745 304.506 31.0745C306.812 31.0745 308.463 31.9584 309.467 33.7263H309.532L309.672 31.4188H312.989V31.4224ZM309.085 40.9967V38.036C309.085 36.9107 308.726 35.9486 308.017 35.1428C307.301 34.3369 306.366 33.9393 305.193 33.9393C303.909 33.9393 302.855 34.4647 302.024 35.5226C301.196 36.5805 300.779 37.9899 300.779 39.7578C300.779 41.3659 301.164 42.6617 301.938 43.6486C302.725 44.7278 303.812 45.2674 305.19 45.2674C306.031 45.2674 306.783 45.0224 307.452 44.529C308.121 44.0355 308.589 43.3646 308.873 42.5161C309.014 42.0972 309.085 41.5896 309.085 40.9967V40.9967ZM333.508 38.9981C333.508 39.6655 333.457 40.2264 333.367 40.6843H322.061C322.111 42.3386 322.651 43.5989 323.698 44.4722C324.655 45.2532 325.889 45.6437 327.4 45.6437C329.072 45.6437 330.598 45.381 331.972 44.852L332.562 47.4364C330.954 48.1251 329.061 48.4695 326.871 48.4695C324.245 48.4695 322.176 47.7062 320.68 46.1797C319.176 44.6532 318.431 42.6049 318.431 40.0347C318.431 37.5106 319.126 35.409 320.525 33.7334C321.986 31.9442 323.96 31.0496 326.453 31.0496C328.892 31.0496 330.745 31.9442 331.997 33.7334C333.008 35.1534 333.508 36.9107 333.508 38.9981V38.9981ZM329.91 38.036C329.963 37.0327 329.709 36.037 329.18 35.1783C328.525 34.1452 327.529 33.6269 326.18 33.6269C325.592 33.6171 325.011 33.7502 324.488 34.0146C323.965 34.2789 323.515 34.6664 323.18 35.1428C322.54 35.985 322.153 36.9874 322.061 38.036H329.91V38.036ZM347.951 34.6955C347.56 34.624 347.162 34.5895 346.764 34.5925C345.437 34.5925 344.419 35.086 343.692 36.0729C343.066 36.9462 342.749 38.0467 342.749 39.3779V48.1606H338.976L339.012 36.6941C339.012 34.7665 338.969 33.0092 338.879 31.4259H342.152L342.292 34.628H342.397C342.75 33.5827 343.404 32.6613 344.278 31.9762C345.12 31.3798 346.027 31.0816 347.005 31.0816C347.35 31.0816 347.667 31.1029 347.948 31.149V34.6955H347.951ZM378.032 48.1571H374.679L374.503 45.4697H374.399C373.33 47.5145 371.517 48.5369 368.96 48.5369C366.909 48.5369 365.215 47.7453 363.866 46.162C362.517 44.5787 361.844 42.5232 361.844 39.9992C361.844 37.2905 362.574 35.0966 364.035 33.421C365.456 31.859 367.204 31.078 369.269 31.078C371.553 31.078 373.147 31.8342 374.053 33.35H374.125V23.7437H377.892V43.6486C377.892 45.278 377.939 46.7797 378.032 48.1571V48.1571ZM374.125 41.0997V38.3094C374.163 37.6649 374.049 37.0207 373.793 36.4266C373.537 35.8325 373.146 35.3046 372.65 34.8836C371.956 34.2781 371.055 33.9524 370.129 33.9713C368.729 33.9713 367.629 34.5215 366.819 35.6256C366.01 36.7296 365.61 38.139 365.61 39.8607C365.61 41.515 365.995 42.8569 366.769 43.89C367.585 44.9905 368.679 45.5407 370.057 45.5407C371.294 45.5407 372.291 45.0828 373.035 44.1633C373.758 43.3149 374.125 42.2925 374.125 41.0997V41.0997ZM397.289 48.1571H393.904L393.63 46.2294H393.526C392.36 47.7666 390.709 48.5369 388.572 48.5369C386.964 48.5369 385.669 48.0293 384.694 47.0211C384.257 46.5671 383.916 46.0322 383.689 45.4473C383.463 44.8624 383.355 44.239 383.374 43.6131C383.374 41.5683 384.237 40.0098 385.975 38.9306C387.702 37.8514 390.141 37.3225 393.281 37.3473V37.0349C393.281 34.8304 392.108 33.7299 389.767 33.7299C388.094 33.7299 386.619 34.1452 385.342 34.9688L384.576 32.5264C386.155 31.5644 388.097 31.0816 390.393 31.0816C394.832 31.0816 397.048 33.3891 397.048 38.0041V44.1669C397.044 45.8389 397.127 47.1702 397.289 48.1571V48.1571ZM393.382 42.4061V39.8252C389.216 39.7542 387.137 40.8796 387.137 43.1977C387.137 44.071 387.382 44.7242 387.867 45.1609C388.371 45.6036 389.028 45.8376 389.702 45.8141C390.536 45.8141 391.303 45.5549 392.015 45.0402C392.442 44.7429 392.789 44.3479 393.027 43.8892C393.265 43.4304 393.387 42.9215 393.382 42.4061V42.4061ZM418.365 48.1571H414.592V38.5721C414.592 35.6185 413.455 34.1417 411.178 34.1417C410.66 34.1272 410.145 34.2293 409.672 34.4403C409.2 34.6512 408.782 34.9655 408.451 35.3593C407.761 36.1582 407.388 37.1778 407.404 38.2277V48.1535H403.638V36.2042C403.638 34.7345 403.588 33.1406 403.498 31.4153H406.814L406.991 34.0316H407.095C407.53 33.2187 408.185 32.5477 409.048 32.0117C410.066 31.3869 411.214 31.0709 412.462 31.0709C414.049 31.0709 415.365 31.575 416.412 32.5868C417.711 33.8257 418.365 35.6753 418.365 38.1319V48.1571V48.1571ZM435.363 43.3504C435.363 44.9053 434.78 46.1549 433.622 47.0956C432.456 48.0364 430.852 48.505 428.801 48.505C426.87 48.505 425.233 48.1251 423.884 47.369L424.686 44.6142C425.992 45.3952 427.377 45.7857 428.837 45.7857C430.769 45.7857 431.733 45.0863 431.733 43.6841C431.743 43.3996 431.692 43.1162 431.584 42.8522C431.476 42.5881 431.314 42.3492 431.107 42.1505C430.686 41.7493 429.942 41.3517 428.873 40.9648C425.851 39.8607 424.341 38.2561 424.341 36.1439C424.341 34.699 424.895 33.492 426.013 32.5264C427.132 31.5608 428.607 31.0816 430.445 31.0816C432.118 31.0816 433.55 31.4188 434.737 32.0933L433.928 34.7665C432.889 34.1389 431.695 33.806 430.478 33.8044C429.683 33.8044 429.064 33.989 428.621 34.3547C428.41 34.5247 428.241 34.74 428.126 34.9841C428.011 35.2283 427.954 35.495 427.96 35.764C427.96 36.3356 428.19 36.8042 428.654 37.1698C429.053 37.5142 429.819 37.8905 430.96 38.3023C433.895 39.3992 435.363 41.0819 435.363 43.3504Z" fill="white"/>
</g>
<defs>
<clipPath id="clip0_58_15">
<rect width="485.64" height="142" fill="white" transform="translate(0.696411 0.469971)"/>
</clipPath>
</defs>
</svg>
