<svg width="573" height="198" viewBox="0 0 573 198" fill="none" xmlns="http://www.w3.org/2000/svg">
<path d="M517.342 33H56.0512C45.8607 33 37.5996 40.3873 37.5996 49.5V148.5C37.5996 157.613 45.8607 165 56.0512 165H517.342C527.533 165 535.794 157.613 535.794 148.5V49.5C535.794 40.3873 527.533 33 517.342 33Z" fill="black"/>
<path d="M517.342 35.64C521.453 35.64 525.395 37.1002 528.302 39.6995C531.208 42.2988 532.841 45.8241 532.841 49.5V148.5C532.841 152.176 531.208 155.701 528.302 158.301C525.395 160.9 521.453 162.36 517.342 162.36H56.0512C51.9406 162.36 47.9982 160.9 45.0915 158.301C42.1848 155.701 40.5519 152.176 40.5519 148.5V49.5C40.5519 45.8241 42.1848 42.2988 45.0915 39.6995C47.9982 37.1002 51.9406 35.64 56.0512 35.64H517.342ZM517.342 33H56.0512C51.1576 33 46.4643 34.7384 43.004 37.8327C39.5436 40.9271 37.5996 45.1239 37.5996 49.5V148.5C37.5996 152.876 39.5436 157.073 43.004 160.167C46.4643 163.262 51.1576 165 56.0512 165H517.342C522.236 165 526.929 163.262 530.389 160.167C533.85 157.073 535.794 152.876 535.794 148.5V49.5C535.794 45.1239 533.85 40.9271 530.389 37.8327C526.929 34.7384 522.236 33 517.342 33Z" fill="#A6A6A6"/>
<path d="M289.058 104.775C285.959 104.788 282.934 105.622 280.365 107.171C277.795 108.72 275.796 110.915 274.621 113.478C273.445 116.042 273.145 118.86 273.758 121.576C274.372 124.293 275.871 126.785 278.068 128.74C280.264 130.695 283.059 132.024 286.099 132.56C289.139 133.096 292.289 132.814 295.151 131.751C298.012 130.688 300.457 128.89 302.177 126.585C303.898 124.28 304.816 121.571 304.816 118.8C304.846 116.945 304.458 115.104 303.676 113.386C302.894 111.668 301.733 110.108 300.263 108.799C298.792 107.491 297.043 106.46 295.118 105.769C293.193 105.077 291.132 104.739 289.058 104.775V104.775ZM289.058 127.314C287.152 127.433 285.25 127.037 283.6 126.177C281.949 125.317 280.626 124.032 279.803 122.491C278.979 120.949 278.693 119.222 278.982 117.533C279.271 115.845 280.121 114.273 281.423 113.022C282.724 111.771 284.416 110.899 286.278 110.52C288.141 110.14 290.088 110.27 291.867 110.893C293.646 111.517 295.174 112.604 296.252 114.014C297.331 115.424 297.91 117.092 297.915 118.8C297.974 119.882 297.791 120.965 297.375 121.983C296.959 123.001 296.32 123.934 295.494 124.727C294.669 125.521 293.674 126.159 292.569 126.603C291.463 127.047 290.27 127.289 289.058 127.314ZM254.701 104.775C251.601 104.782 248.572 105.61 245.998 107.155C243.423 108.7 241.419 110.892 240.237 113.456C239.056 116.019 238.751 118.838 239.36 121.556C239.969 124.275 241.466 126.771 243.661 128.729C245.856 130.687 248.65 132.019 251.692 132.558C254.733 133.096 257.885 132.817 260.748 131.754C263.612 130.692 266.059 128.894 267.781 126.588C269.503 124.283 270.422 121.572 270.422 118.8C270.452 116.945 270.064 115.104 269.282 113.386C268.5 111.668 267.339 110.108 265.869 108.799C264.399 107.491 262.649 106.46 260.724 105.769C258.799 105.077 256.738 104.739 254.664 104.775H254.701ZM254.701 127.314C252.794 127.44 250.889 127.05 249.234 126.194C247.579 125.338 246.251 124.057 245.421 122.516C244.592 120.976 244.3 119.248 244.585 117.557C244.869 115.866 245.716 114.291 247.015 113.037C248.315 111.783 250.006 110.908 251.869 110.525C253.733 110.142 255.682 110.27 257.463 110.892C259.244 111.514 260.774 112.601 261.855 114.011C262.935 115.422 263.516 117.09 263.521 118.8C263.58 119.882 263.397 120.965 262.981 121.983C262.565 123.001 261.926 123.934 261.101 124.727C260.275 125.521 259.28 126.159 258.175 126.603C257.069 127.047 255.876 127.289 254.664 127.314H254.701ZM213.775 109.098V115.038H229.718C229.468 117.836 228.167 120.476 226.027 122.529C224.432 123.982 222.515 125.12 220.399 125.87C218.282 126.62 216.013 126.966 213.739 126.885C209.041 126.885 204.535 125.216 201.213 122.246C197.891 119.275 196.025 115.246 196.025 111.045C196.025 106.844 197.891 102.815 201.213 99.8444C204.535 96.8739 209.041 95.205 213.739 95.205C218.233 95.1395 222.572 96.6704 225.806 99.462L230.493 95.271C228.31 93.2944 225.705 91.7297 222.834 90.6697C219.962 89.6097 216.882 89.0759 213.775 89.1C210.495 88.9858 207.222 89.4651 204.153 90.509C201.085 91.5529 198.283 93.1401 195.917 95.1753C193.551 97.2106 191.668 99.6521 190.382 102.353C189.097 105.055 188.434 107.961 188.434 110.897C188.434 113.832 189.097 116.738 190.382 119.44C191.668 122.141 193.551 124.582 195.917 126.618C198.283 128.653 201.085 130.24 204.153 131.284C207.222 132.328 210.495 132.807 213.775 132.693C216.934 132.821 220.087 132.342 223.021 131.289C225.956 130.236 228.604 128.633 230.788 126.588C234.654 122.789 236.718 117.796 236.545 112.662C236.557 111.411 236.433 110.162 236.176 108.933L213.775 109.098ZM380.984 113.718C380.021 111.186 378.222 108.975 375.823 107.378C373.424 105.781 370.54 104.873 367.551 104.775C365.532 104.771 363.534 105.138 361.681 105.853C359.827 106.567 358.156 107.614 356.773 108.928C355.389 110.243 354.322 111.797 353.637 113.495C352.952 115.193 352.664 116.998 352.79 118.8C352.745 120.644 353.116 122.478 353.882 124.191C354.647 125.904 355.79 127.462 357.244 128.771C358.698 130.08 360.432 131.114 362.342 131.811C364.252 132.507 366.3 132.852 368.363 132.825C370.944 132.837 373.489 132.277 375.769 131.195C378.048 130.112 379.992 128.54 381.427 126.621L376.076 123.321C375.277 124.512 374.146 125.496 372.794 126.179C371.442 126.862 369.915 127.219 368.363 127.215C366.764 127.269 365.184 126.893 363.829 126.133C362.473 125.374 361.404 124.268 360.761 122.958L381.759 115.203L380.984 113.718ZM359.58 118.404C359.505 117.383 359.659 116.359 360.032 115.393C360.405 114.426 360.99 113.535 361.753 112.773C362.516 112.011 363.442 111.392 364.475 110.954C365.509 110.516 366.63 110.266 367.772 110.22C368.963 110.15 370.15 110.394 371.187 110.922C372.223 111.45 373.063 112.239 373.603 113.19L359.58 118.404ZM342.531 132H349.432V90.75H342.531V132ZM331.238 107.91H330.98C329.94 106.87 328.666 106.039 327.241 105.47C325.817 104.901 324.274 104.608 322.714 104.61C318.681 104.785 314.878 106.341 312.093 108.955C309.308 111.569 307.754 115.041 307.754 118.652C307.754 122.262 309.308 125.734 312.093 128.348C314.878 130.962 318.681 132.518 322.714 132.693C324.277 132.717 325.828 132.433 327.256 131.863C328.684 131.293 329.955 130.45 330.98 129.393H331.201V131.406C331.201 136.785 327.991 139.656 322.824 139.656C321.104 139.62 319.434 139.127 318.027 138.24C316.621 137.352 315.542 136.111 314.927 134.673L308.912 136.917C310.044 139.38 311.973 141.484 314.452 142.96C316.931 144.436 319.846 145.216 322.824 145.2C330.906 145.2 337.586 140.943 337.586 130.581V105.6H331.238V107.91ZM323.341 127.314C320.961 127.126 318.745 126.148 317.131 124.572C315.517 122.996 314.622 120.937 314.622 118.8C314.622 116.663 315.517 114.604 317.131 113.028C318.745 111.452 320.961 110.474 323.341 110.286C324.521 110.34 325.677 110.605 326.741 111.065C327.805 111.525 328.756 112.171 329.536 112.964C330.317 113.757 330.912 114.682 331.287 115.685C331.662 116.687 331.808 117.746 331.718 118.8C331.819 119.858 331.678 120.924 331.305 121.932C330.932 122.941 330.334 123.871 329.548 124.667C328.761 125.463 327.803 126.108 326.729 126.563C325.656 127.018 324.491 127.273 323.304 127.314H323.341ZM413.311 90.75H396.815V132H403.716V116.358H413.348C415.315 116.484 417.289 116.247 419.149 115.661C421.009 115.075 422.713 114.152 424.157 112.951C425.6 111.749 426.751 110.295 427.538 108.678C428.326 107.062 428.732 105.317 428.732 103.554C428.732 101.791 428.326 100.046 427.538 98.4297C426.751 96.813 425.6 95.3586 424.157 94.1573C422.713 92.9559 421.009 92.0334 419.149 91.4472C417.289 90.861 415.315 90.6236 413.348 90.75H413.311ZM413.311 110.55H403.679V96.492H413.459C415.558 96.492 417.571 97.2378 419.056 98.5652C420.54 99.8927 421.374 101.693 421.374 103.571C421.374 105.448 420.54 107.248 419.056 108.576C417.571 109.903 415.558 110.649 413.459 110.649L413.311 110.55ZM455.86 104.61C453.348 104.476 450.847 105.001 448.663 106.12C446.48 107.24 444.71 108.906 443.572 110.913L449.697 113.19C450.301 112.195 451.216 111.378 452.33 110.839C453.444 110.3 454.709 110.062 455.971 110.154C456.847 110.063 457.735 110.128 458.582 110.346C459.43 110.565 460.22 110.932 460.907 111.427C461.594 111.921 462.164 112.533 462.584 113.227C463.003 113.921 463.264 114.682 463.352 115.467V115.896C461.135 114.847 458.663 114.303 456.155 114.312C449.55 114.312 442.87 117.612 442.87 123.585C442.936 124.859 443.286 126.108 443.9 127.258C444.514 128.409 445.38 129.437 446.447 130.283C447.513 131.129 448.759 131.776 450.109 132.184C451.46 132.592 452.889 132.754 454.31 132.66C456.048 132.772 457.788 132.463 459.346 131.766C460.904 131.069 462.224 130.01 463.167 128.7H463.389V132H470.031V116.127C470.031 108.9 463.905 104.709 456.045 104.709L455.86 104.61ZM455.012 127.215C452.76 127.215 449.624 126.192 449.624 123.717C449.624 120.417 453.535 119.328 457.004 119.328C459.196 119.28 461.363 119.758 463.278 120.714C463.047 122.501 462.102 124.152 460.617 125.365C459.132 126.578 457.207 127.27 455.196 127.314L455.012 127.215ZM494.24 105.6L486.342 123.486H486.121L477.928 105.6H470.548L482.836 130.614L475.825 144.507H483.021L501.915 105.6H494.24ZM432.205 132H439.106V90.75H432.205V132Z" fill="white"/>
<path d="M76.1265 57.882C74.9237 59.1727 74.3166 60.8249 74.429 62.502V135.498C74.3166 137.175 74.9237 138.827 76.1265 140.118L76.3849 140.349L122.108 99.495V98.538L76.3849 57.651L76.1265 57.882Z" fill="url(#paint0_linear_57_3)"/>
<path d="M137.238 113.124L122.108 99.495V98.538L137.238 84.876L137.57 85.041L155.69 94.248C160.856 96.855 160.856 101.145 155.69 103.785L137.644 112.959L137.238 113.124Z" fill="url(#paint1_linear_57_3)"/>
<path d="M137.681 112.926L122.108 99L76.1265 140.118C77.1795 140.946 78.5229 141.419 79.9245 141.455C81.326 141.491 82.6976 141.088 83.8023 140.316L137.718 112.926" fill="url(#paint2_linear_57_3)"/>
<path d="M137.681 85.074L83.7657 57.684C82.661 56.9118 81.2894 56.509 79.8879 56.5451C78.4863 56.5813 77.1429 57.0541 76.0898 57.882L122.108 99L137.681 85.074Z" fill="url(#paint3_linear_57_3)"/>
<path opacity="0.2" d="M137.238 112.629L83.7654 139.854C82.7 140.566 81.4054 140.951 80.0751 140.951C78.7448 140.951 77.4502 140.566 76.3848 139.854L76.1265 140.085L76.3848 140.316C77.4478 141.033 78.7433 141.422 80.0751 141.422C81.4069 141.422 82.7024 141.033 83.7654 140.316L137.681 112.926L137.238 112.629Z" fill="black"/>
<path opacity="0.12" d="M76.1265 139.656C74.9237 138.365 74.3166 136.713 74.429 135.036V135.531C74.3166 137.208 74.9237 138.86 76.1265 140.151L76.3849 139.92L76.1265 139.656ZM155.69 103.29L137.238 112.629L137.57 112.926L155.69 103.752C156.718 103.32 157.6 102.653 158.248 101.819C158.896 100.985 159.287 100.012 159.38 99C159.173 99.9197 158.732 100.785 158.092 101.528C157.453 102.272 156.631 102.875 155.69 103.29Z" fill="black"/>
<path opacity="0.25" d="M83.7656 58.146L155.69 94.71C156.631 95.1253 157.453 95.728 158.093 96.4717C158.732 97.2154 159.173 98.0803 159.38 99C159.287 97.9877 158.897 97.0153 158.249 96.181C157.601 95.3467 156.718 94.6799 155.69 94.248L83.7656 57.684C78.5992 55.077 74.3922 57.255 74.3922 62.535V63.03C74.5029 57.717 78.6361 55.539 83.7656 58.146V58.146Z" fill="white"/>
<path d="M189.936 75.9V56.1H196.726C198.222 56.0396 199.716 56.2512 201.118 56.722C202.52 57.1928 203.8 57.913 204.882 58.839C205.91 59.784 206.711 60.9063 207.238 62.1375C207.765 63.3687 208.005 64.683 207.945 66C208.005 67.3171 207.765 68.6314 207.238 69.8626C206.711 71.0938 205.91 72.2161 204.882 73.161C203.8 74.0871 202.52 74.8073 201.118 75.2781C199.716 75.7488 198.222 75.9604 196.726 75.9H189.936ZM192.778 73.458H196.689C197.801 73.5098 198.913 73.3612 199.959 73.0211C201.005 72.6809 201.964 72.1562 202.778 71.478C203.552 70.7505 204.15 69.8892 204.537 68.9471C204.924 68.0051 205.092 67.0021 205.03 66C205.124 65.0021 204.975 63.9977 204.592 63.0567C204.208 62.1156 203.6 61.2605 202.81 60.5508C202.02 59.841 201.067 59.2937 200.016 58.9468C198.965 58.5999 197.843 58.4618 196.726 58.542H192.593L192.778 73.458ZM211.931 75.9V56.1H214.735V75.9H211.931ZM226.064 76.329C224.364 76.3018 222.715 75.8063 221.341 74.91C219.813 73.9761 218.732 72.5627 218.315 70.95L220.898 70.026C221.194 71.0909 221.851 72.0477 222.78 72.765C223.667 73.4895 224.826 73.8899 226.028 73.887C227.162 73.9206 228.277 73.6191 229.201 73.029C229.627 72.7641 229.972 72.4078 230.204 71.9926C230.437 71.5775 230.548 71.1169 230.53 70.653C230.553 70.1652 230.445 69.6795 230.213 69.2371C229.982 68.7948 229.635 68.4088 229.201 68.112C227.927 67.3448 226.517 66.7757 225.031 66.429C223.377 66.0325 221.849 65.2982 220.566 64.284C220.075 63.8557 219.687 63.3418 219.427 62.7742C219.167 62.2066 219.039 61.5974 219.053 60.984C219.054 60.2837 219.223 59.5916 219.547 58.9542C219.872 58.3168 220.345 57.7487 220.935 57.288C222.261 56.2021 224.009 55.6219 225.806 55.671C227.448 55.6045 229.064 56.0475 230.382 56.925C231.435 57.6121 232.232 58.5664 232.67 59.664L230.087 60.621C229.861 59.919 229.381 59.3038 228.721 58.872C227.899 58.343 226.912 58.0583 225.898 58.0583C224.885 58.0583 223.898 58.343 223.075 58.872C222.715 59.1056 222.422 59.4136 222.223 59.7698C222.024 60.126 221.924 60.5199 221.931 60.918C221.93 61.285 222.026 61.6471 222.212 61.9742C222.398 62.3013 222.669 62.5841 223.001 62.799C223.953 63.4066 225.014 63.8642 226.138 64.152C227.067 64.4152 227.978 64.7237 228.869 65.076C229.651 65.4025 230.393 65.8006 231.083 66.264C231.813 66.7292 232.398 67.3541 232.781 68.079C233.186 68.8764 233.388 69.7444 233.371 70.62C233.39 71.5138 233.161 72.3978 232.707 73.194C232.293 73.9114 231.684 74.5241 230.936 74.976C230.21 75.4213 229.414 75.7662 228.574 75.999C227.759 76.2161 226.914 76.3273 226.064 76.329V76.329ZM240.567 75.9H237.726V56.1H245.107C246.912 56.0792 248.657 56.6821 249.978 57.783C250.631 58.3208 251.152 58.9738 251.509 59.7009C251.865 60.4279 252.049 61.2132 252.049 62.007C252.049 62.8009 251.865 63.5862 251.509 64.3132C251.152 65.0403 250.631 65.6933 249.978 66.231C248.659 67.335 246.913 67.9383 245.107 67.914H240.567V75.9ZM240.567 65.439H245.328C245.868 65.4569 246.405 65.3687 246.902 65.1805C247.4 64.9923 247.845 64.7088 248.206 64.35C248.564 64.0422 248.848 63.6731 249.042 63.2649C249.236 62.8567 249.336 62.4176 249.336 61.974C249.336 61.5305 249.236 61.0914 249.042 60.6832C248.848 60.2749 248.564 59.9059 248.206 59.598C247.845 59.2392 247.4 58.9558 246.902 58.7676C246.405 58.5794 245.868 58.4912 245.328 58.509H240.567V65.439ZM273.78 73.326C271.623 75.2445 268.704 76.3214 265.662 76.3214C262.619 76.3214 259.7 75.2445 257.543 73.326C255.446 71.3412 254.278 68.7141 254.278 65.9835C254.278 63.253 255.446 60.6259 257.543 58.641C258.606 57.6832 259.871 56.923 261.265 56.4042C262.658 55.8854 264.152 55.6183 265.662 55.6183C267.171 55.6183 268.665 55.8854 270.059 56.4042C271.452 56.923 272.717 57.6832 273.78 58.641C275.886 60.6221 277.059 63.2506 277.059 65.9835C277.059 68.7165 275.886 71.345 273.78 73.326ZM259.646 71.676C261.244 73.0987 263.407 73.8975 265.662 73.8975C267.916 73.8975 270.079 73.0987 271.677 71.676C273.254 70.1218 274.127 68.0985 274.127 66C274.127 63.9016 273.254 61.8783 271.677 60.324C270.079 58.9013 267.916 58.1026 265.662 58.1026C263.407 58.1026 261.244 58.9013 259.646 60.324C258.07 61.8783 257.196 63.9016 257.196 66C257.196 68.0985 258.07 70.1218 259.646 71.676V71.676ZM280.976 75.9V56.1H284.445L295.221 71.511V56.1H298.063V75.9H295.11L283.855 59.763V75.9H280.976ZM303.118 75.9V56.1H305.96V75.9H303.118ZM311.016 75.9V56.1H319.024C320.686 56.072 322.298 56.6153 323.526 57.618C324.143 58.0966 324.634 58.6905 324.966 59.3577C325.297 60.0249 325.461 60.7491 325.445 61.479C325.462 62.3587 325.179 63.2221 324.633 63.954C324.091 64.665 323.337 65.2253 322.456 65.571C323.526 65.8879 324.465 66.4859 325.15 67.287C325.859 68.0956 326.237 69.0974 326.22 70.125C326.239 70.8858 326.07 71.6409 325.726 72.3367C325.381 73.0326 324.87 73.652 324.227 74.151C322.942 75.211 321.251 75.7897 319.504 75.768L311.016 75.9ZM313.857 64.581H319.024C319.506 64.5991 319.987 64.5228 320.433 64.3575C320.88 64.1922 321.28 63.9419 321.607 63.624C321.934 63.3591 322.197 63.038 322.382 62.68C322.567 62.322 322.67 61.9343 322.684 61.5401C322.697 61.1459 322.622 60.7532 322.463 60.3855C322.303 60.0179 322.062 59.6827 321.755 59.4C321.446 59.0881 321.065 58.8407 320.638 58.6753C320.21 58.5099 319.748 58.4306 319.282 58.443H313.857V64.581ZM313.857 73.458H319.577C320.077 73.473 320.574 73.3891 321.034 73.2123C321.493 73.0354 321.903 72.77 322.234 72.435C322.885 71.8316 323.254 71.0293 323.268 70.191C323.268 69.3158 322.879 68.4765 322.187 67.8576C321.495 67.2387 320.556 66.891 319.577 66.891H313.857V73.458ZM330.021 75.9V56.1H332.826V73.458H342.42V75.9H330.021ZM358.953 58.542H348.879V64.812H357.957V67.188H348.879V73.458H358.953V75.9H346.037V56.1H358.953V58.542ZM376.15 76.329C374.45 76.3018 372.8 75.8063 371.426 74.91C369.898 73.9761 368.818 72.5627 368.4 70.95L370.984 70.026C371.28 71.0909 371.937 72.0477 372.866 72.765C373.753 73.4895 374.912 73.8899 376.113 73.887C377.248 73.9206 378.363 73.6191 379.287 73.029C379.713 72.7641 380.058 72.4078 380.29 71.9926C380.522 71.5775 380.634 71.1169 380.615 70.653C380.639 70.1652 380.53 69.6795 380.299 69.2371C380.068 68.7948 379.72 68.4088 379.287 68.112C378.013 67.3448 376.603 66.7757 375.117 66.429C373.463 66.0325 371.934 65.2982 370.651 64.284C370.16 63.8557 369.773 63.3418 369.513 62.7742C369.252 62.2066 369.125 61.5974 369.138 60.984C369.14 60.2837 369.308 59.5916 369.633 58.9542C369.957 58.3168 370.43 57.7487 371.02 57.288C372.362 56.206 374.124 55.6373 375.929 55.704C377.57 55.6375 379.187 56.0805 380.505 56.958C381.557 57.6451 382.355 58.5994 382.793 59.697L380.209 60.654C379.983 59.9519 379.503 59.3368 378.844 58.905C378.022 58.376 377.034 58.0913 376.021 58.0913C375.008 58.0913 374.02 58.376 373.198 58.905C372.837 59.1386 372.545 59.4466 372.346 59.8028C372.146 60.159 372.046 60.5529 372.054 60.951C372.052 61.318 372.148 61.6801 372.335 62.0072C372.521 62.3343 372.791 62.6171 373.124 62.832C374.076 63.4396 375.137 63.8972 376.261 64.185C377.189 64.4483 378.101 64.7568 378.992 65.109C379.774 65.4355 380.516 65.8336 381.206 66.297C381.936 66.7622 382.52 67.3871 382.903 68.112C383.308 68.9094 383.51 69.7774 383.494 70.653C383.512 71.5468 383.284 72.4308 382.83 73.227C382.415 73.9444 381.806 74.5571 381.058 75.009C380.333 75.4543 379.537 75.7992 378.696 76.032C377.868 76.2411 377.01 76.3412 376.15 76.329V76.329ZM395.34 76.329C394.236 76.3689 393.135 76.1982 392.111 75.8284C391.086 75.4585 390.162 74.898 389.398 74.184C387.834 72.6462 387.011 70.6182 387.11 68.541V56.1H389.952V68.64C389.879 70.0111 390.364 71.3593 391.317 72.435C392.354 73.3827 393.764 73.9303 395.247 73.9611C396.729 73.992 398.166 73.5035 399.251 72.6C400.205 71.5243 400.69 70.1761 400.617 68.805V56.1H403.458V68.541C403.562 70.607 402.768 72.6287 401.244 74.184C400.486 74.8955 399.568 75.4546 398.55 75.8244C397.532 76.1942 396.438 76.3662 395.34 76.329V76.329ZM408.108 75.9V56.1H415.489C417.294 56.0792 419.039 56.6821 420.36 57.783C421.572 58.7801 422.306 60.1573 422.41 61.6271C422.513 63.0968 421.977 64.5453 420.914 65.67C419.973 66.6941 418.672 67.4036 417.223 67.683L423.423 75.9H420.065L414.013 67.881H410.839V75.9H408.108ZM410.95 65.505H415.526C416.604 65.5246 417.649 65.1698 418.441 64.515C418.833 64.1991 419.144 63.8118 419.354 63.3791C419.564 62.9465 419.668 62.4786 419.659 62.007C419.651 61.1225 419.269 60.2736 418.589 59.631C418.227 59.2722 417.782 58.9888 417.285 58.8006C416.787 58.6124 416.25 58.5242 415.71 58.542H410.95V65.505Z" fill="white" stroke="white" stroke-width="0.2" stroke-miterlimit="10"/>
<defs>
<linearGradient id="paint0_linear_57_3" x1="118.049" y1="61.743" x2="63.0188" y2="123.282" gradientUnits="userSpaceOnUse">
<stop stop-color="#00A0FF"/>
<stop offset="0.01" stop-color="#00A1FF"/>
<stop offset="0.26" stop-color="#00BEFF"/>
<stop offset="0.51" stop-color="#00D2FF"/>
<stop offset="0.76" stop-color="#00DFFF"/>
<stop offset="1" stop-color="#00E3FF"/>
</linearGradient>
<linearGradient id="paint1_linear_57_3" x1="162.443" y1="99" x2="73.1742" y2="99" gradientUnits="userSpaceOnUse">
<stop stop-color="#FFE000"/>
<stop offset="0.41" stop-color="#FFBD00"/>
<stop offset="0.78" stop-color="#FFA500"/>
<stop offset="1" stop-color="#FF9C00"/>
</linearGradient>
<linearGradient id="paint2_linear_57_3" x1="129.23" y1="106.59" x2="54.5854" y2="190.027" gradientUnits="userSpaceOnUse">
<stop stop-color="#FF3A44"/>
<stop offset="1" stop-color="#C31162"/>
</linearGradient>
<linearGradient id="paint3_linear_57_3" x1="64.5391" y1="33.5939" x2="97.8587" y2="70.8546" gradientUnits="userSpaceOnUse">
<stop stop-color="#32A071"/>
<stop offset="0.07" stop-color="#2DA771"/>
<stop offset="0.48" stop-color="#15CF74"/>
<stop offset="0.8" stop-color="#06E775"/>
<stop offset="1" stop-color="#00F076"/>
</linearGradient>
</defs>
</svg>
