<svg width="39" height="41" viewBox="0 0 39 41" fill="none" xmlns="http://www.w3.org/2000/svg">
<path d="M37.44 0.205383H1.56C0.697125 0.205383 0 0.931835 0 1.83101V39.2204C0 40.1196 0.697125 40.846 1.56 40.846H37.44C38.3029 40.846 39 40.1196 39 39.2204V1.83101C39 0.931835 38.3029 0.205383 37.44 0.205383ZM32.9355 12.0674H29.8204C27.378 12.0674 26.9051 13.2764 26.9051 15.0545V18.9712H32.7356L31.9751 25.1029H26.9051V40.846H20.826V25.108H15.7414V18.9712H20.826V14.4499C20.826 9.20221 23.9021 6.34212 28.3969 6.34212C30.5516 6.34212 32.3993 6.50977 32.9404 6.58597V12.0674H32.9355Z" fill="#838383"/>
</svg>
