<svg width="44" height="44" viewBox="0 0 44 44" fill="none" xmlns="http://www.w3.org/2000/svg">
<path fill-rule="evenodd" clip-rule="evenodd" d="M13.6858 1.95434C15.8363 1.85534 16.522 1.83334 22 1.83334C27.478 1.83334 28.1637 1.85718 30.3123 1.95434C32.461 2.05151 33.9277 2.39434 35.211 2.89118C36.5548 3.39901 37.774 4.19284 38.7823 5.21951C39.809 6.22601 40.601 7.44334 41.107 8.78901C41.6057 10.0723 41.9467 11.539 42.0457 13.684C42.1447 15.8382 42.1667 16.5238 42.1667 22C42.1667 27.478 42.1428 28.1637 42.0457 30.3142C41.9485 32.4592 41.6057 33.9258 41.107 35.2092C40.601 36.555 39.8077 37.7744 38.7823 38.7823C37.774 39.809 36.5548 40.601 35.211 41.107C33.9277 41.6057 32.461 41.9467 30.316 42.0457C28.1637 42.1447 27.478 42.1667 22 42.1667C16.522 42.1667 15.8363 42.1428 13.6858 42.0457C11.5408 41.9485 10.0742 41.6057 8.79084 41.107C7.44503 40.6009 6.22568 39.8076 5.21768 38.7823C4.19171 37.7752 3.39775 36.5565 2.89118 35.211C2.39434 33.9277 2.05334 32.461 1.95434 30.316C1.85534 28.1618 1.83334 27.4762 1.83334 22C1.83334 16.522 1.85718 15.8363 1.95434 13.6877C2.05151 11.539 2.39434 10.0723 2.89118 8.78901C3.3985 7.44349 4.19306 6.22475 5.21951 5.21768C6.22608 4.19193 7.44421 3.39799 8.78901 2.89118C10.0723 2.39434 11.539 2.05334 13.684 1.95434H13.6858ZM30.1492 5.58434C28.0225 5.48718 27.3845 5.46701 22 5.46701C16.6155 5.46701 15.9775 5.48718 13.8508 5.58434C11.8837 5.67418 10.8167 6.00234 10.1053 6.27918C9.16484 6.64584 8.49201 7.08034 7.78618 7.78618C7.11709 8.4371 6.60217 9.22953 6.27918 10.1053C6.00234 10.8167 5.67418 11.8837 5.58434 13.8508C5.48718 15.9775 5.46701 16.6155 5.46701 22C5.46701 27.3845 5.48718 28.0225 5.58434 30.1492C5.67418 32.1163 6.00234 33.1833 6.27918 33.8947C6.60184 34.7692 7.11701 35.563 7.78618 36.2138C8.43701 36.883 9.23084 37.3982 10.1053 37.7208C10.8167 37.9977 11.8837 38.3258 13.8508 38.4157C15.9775 38.5128 16.6137 38.533 22 38.533C27.3863 38.533 28.0225 38.5128 30.1492 38.4157C32.1163 38.3258 33.1833 37.9977 33.8947 37.7208C34.8352 37.3542 35.508 36.9197 36.2138 36.2138C36.883 35.563 37.3982 34.7692 37.7208 33.8947C37.9977 33.1833 38.3258 32.1163 38.4157 30.1492C38.5128 28.0225 38.533 27.3845 38.533 22C38.533 16.6155 38.5128 15.9775 38.4157 13.8508C38.3258 11.8837 37.9977 10.8167 37.7208 10.1053C37.3542 9.16484 36.9197 8.49201 36.2138 7.78618C35.5629 7.11714 34.7705 6.60223 33.8947 6.27918C33.1833 6.00234 32.1163 5.67418 30.1492 5.58434ZM19.4242 28.2168C20.8627 28.8157 22.4645 28.8965 23.956 28.4455C25.4476 27.9945 26.7362 27.0397 27.602 25.7441C28.4677 24.4486 28.8568 22.8926 28.7028 21.342C28.5487 19.7915 27.8612 18.3425 26.7575 17.2425C26.0539 16.5394 25.2032 16.001 24.2666 15.6661C23.33 15.3312 22.3308 15.2082 21.3409 15.3058C20.351 15.4034 19.3951 15.7193 18.542 16.2307C17.6888 16.7422 16.9597 17.4364 16.4071 18.2634C15.8544 19.0904 15.492 20.0297 15.346 21.0136C15.1999 21.9975 15.2738 23.0015 15.5623 23.9535C15.8509 24.9054 16.3469 25.7815 17.0147 26.5187C17.6824 27.2559 18.5054 27.8358 19.4242 28.2168ZM14.6703 14.6703C15.6329 13.7078 16.7756 12.9443 18.0332 12.4233C19.2908 11.9024 20.6388 11.6343 22 11.6343C23.3613 11.6343 24.7092 11.9024 25.9668 12.4233C27.2244 12.9443 28.3671 13.7078 29.3297 14.6703C30.2922 15.6329 31.0558 16.7756 31.5767 18.0332C32.0976 19.2908 32.3657 20.6388 32.3657 22C32.3657 23.3613 32.0976 24.7092 31.5767 25.9668C31.0558 27.2244 30.2922 28.3671 29.3297 29.3297C27.3857 31.2736 24.7492 32.3657 22 32.3657C19.2509 32.3657 16.6143 31.2736 14.6703 29.3297C12.7264 27.3857 11.6343 24.7492 11.6343 22C11.6343 19.2509 12.7264 16.6143 14.6703 14.6703ZM34.6647 13.178C34.9032 12.953 35.0942 12.6824 35.2262 12.3823C35.3583 12.0822 35.4288 11.7586 35.4336 11.4307C35.4384 11.1028 35.3773 10.7773 35.2541 10.4735C35.1308 10.1696 34.9478 9.89361 34.7159 9.66175C34.4841 9.42988 34.208 9.2469 33.9042 9.12363C33.6003 9.00035 33.2748 8.9393 32.947 8.94408C32.6191 8.94886 32.2955 9.01937 31.9954 9.15145C31.6953 9.28353 31.4247 9.47448 31.1997 9.71301C30.7621 10.1769 30.5225 10.7931 30.5318 11.4307C30.5411 12.0684 30.7985 12.6773 31.2495 13.1282C31.7004 13.5792 32.3093 13.8366 32.947 13.8459C33.5846 13.8552 34.2008 13.6156 34.6647 13.178Z" fill="#838383"/>
</svg>
