<svg width="510" height="159" viewBox="0 0 510 159" fill="none" xmlns="http://www.w3.org/2000/svg">
<rect x="1" width="91" height="159" fill="black"/>
<path d="M85.7 39.8V110H68.6V67.9L52.9 110H39.1L23.3 67.8V110H6.2V39.8H26.4L46.1 88.4L65.6 39.8H85.7Z" fill="white"/>
<path d="M106.597 48.4C103.597 48.4 101.13 47.5333 99.1969 45.8C97.3302 44 96.3969 41.8 96.3969 39.2C96.3969 36.5333 97.3302 34.3333 99.1969 32.6C101.13 30.8 103.597 29.9 106.597 29.9C109.53 29.9 111.93 30.8 113.797 32.6C115.73 34.3333 116.697 36.5333 116.697 39.2C116.697 41.8 115.73 44 113.797 45.8C111.93 47.5333 109.53 48.4 106.597 48.4ZM115.097 54.2V110H97.9969V54.2H115.097ZM161.489 53.6C168.022 53.6 173.222 55.7333 177.089 60C181.022 64.2 182.989 70 182.989 77.4V110H165.989V79.7C165.989 75.9667 165.022 73.0667 163.089 71C161.156 68.9333 158.556 67.9 155.289 67.9C152.022 67.9 149.422 68.9333 147.489 71C145.556 73.0667 144.589 75.9667 144.589 79.7V110H127.489V54.2H144.589V61.6C146.322 59.1333 148.656 57.2 151.589 55.8C154.522 54.3333 157.822 53.6 161.489 53.6ZM210.872 95.9H235.072V110H191.772V96.4L214.972 68.3H191.972V54.2H234.572V67.8L210.872 95.9ZM269.881 110.8C264.415 110.8 259.481 109.633 255.081 107.3C250.748 104.967 247.315 101.633 244.781 97.3C242.315 92.9667 241.081 87.9 241.081 82.1C241.081 76.3667 242.348 71.3333 244.881 67C247.415 62.6 250.881 59.2333 255.281 56.9C259.681 54.5667 264.615 53.4 270.081 53.4C275.548 53.4 280.481 54.5667 284.881 56.9C289.281 59.2333 292.748 62.6 295.281 67C297.815 71.3333 299.081 76.3667 299.081 82.1C299.081 87.8333 297.781 92.9 295.181 97.3C292.648 101.633 289.148 104.967 284.681 107.3C280.281 109.633 275.348 110.8 269.881 110.8ZM269.881 96C273.148 96 275.915 94.8 278.181 92.4C280.515 90 281.681 86.5667 281.681 82.1C281.681 77.6333 280.548 74.2 278.281 71.8C276.081 69.4 273.348 68.2 270.081 68.2C266.748 68.2 263.981 69.4 261.781 71.8C259.581 74.1333 258.481 77.5667 258.481 82.1C258.481 86.5667 259.548 90 261.681 92.4C263.881 94.8 266.615 96 269.881 96ZM339.253 95.5V110H330.553C324.353 110 319.52 108.5 316.053 105.5C312.586 102.433 310.853 97.4667 310.853 90.6V68.4H304.053V54.2H310.853V40.6H327.953V54.2H339.153V68.4H327.953V90.8C327.953 92.4667 328.353 93.6667 329.153 94.4C329.953 95.1333 331.286 95.5 333.153 95.5H339.253ZM374.178 110.8C368.711 110.8 363.778 109.633 359.378 107.3C355.045 104.967 351.611 101.633 349.078 97.3C346.611 92.9667 345.378 87.9 345.378 82.1C345.378 76.3667 346.645 71.3333 349.178 67C351.711 62.6 355.178 59.2333 359.578 56.9C363.978 54.5667 368.911 53.4 374.378 53.4C379.845 53.4 384.778 54.5667 389.178 56.9C393.578 59.2333 397.045 62.6 399.578 67C402.111 71.3333 403.378 76.3667 403.378 82.1C403.378 87.8333 402.078 92.9 399.478 97.3C396.945 101.633 393.445 104.967 388.978 107.3C384.578 109.633 379.645 110.8 374.178 110.8ZM374.178 96C377.445 96 380.211 94.8 382.478 92.4C384.811 90 385.978 86.5667 385.978 82.1C385.978 77.6333 384.845 74.2 382.578 71.8C380.378 69.4 377.645 68.2 374.378 68.2C371.045 68.2 368.278 69.4 366.078 71.8C363.878 74.1333 362.778 77.5667 362.778 82.1C362.778 86.5667 363.845 90 365.978 92.4C368.178 94.8 370.911 96 374.178 96Z" fill="black"/>
</svg>
