<svg width="377" height="74" viewBox="0 0 377 74" fill="none" xmlns="http://www.w3.org/2000/svg">
<rect x="1" width="42" height="74" fill="black"/>
<path d="M41.136 19.304V53H32.928V32.792L25.392 53H18.768L11.184 32.744V53H2.976V19.304H12.672L22.128 42.632L31.488 19.304H41.136Z" fill="white"/>
<path d="M51.1665 23.432C49.7265 23.432 48.5425 23.016 47.6145 22.184C46.7185 21.32 46.2705 20.264 46.2705 19.016C46.2705 17.736 46.7185 16.68 47.6145 15.848C48.5425 14.984 49.7265 14.552 51.1665 14.552C52.5745 14.552 53.7265 14.984 54.6225 15.848C55.5505 16.68 56.0145 17.736 56.0145 19.016C56.0145 20.264 55.5505 21.32 54.6225 22.184C53.7265 23.016 52.5745 23.432 51.1665 23.432ZM55.2465 26.216V53H47.0385V26.216H55.2465ZM77.5148 25.928C80.6508 25.928 83.1468 26.952 85.0028 29C86.8908 31.016 87.8348 33.8 87.8348 37.352V53H79.6748V38.456C79.6748 36.664 79.2108 35.272 78.2828 34.28C77.3548 33.288 76.1068 32.792 74.5388 32.792C72.9708 32.792 71.7228 33.288 70.7948 34.28C69.8668 35.272 69.4028 36.664 69.4028 38.456V53H61.1948V26.216H69.4028V29.768C70.2348 28.584 71.3548 27.656 72.7628 26.984C74.1708 26.28 75.7548 25.928 77.5148 25.928ZM101.219 46.232H112.835V53H92.0505V46.472L103.187 32.984H92.1465V26.216H112.595V32.744L101.219 46.232ZM129.543 53.384C126.919 53.384 124.551 52.824 122.439 51.704C120.359 50.584 118.711 48.984 117.495 46.904C116.311 44.824 115.719 42.392 115.719 39.608C115.719 36.856 116.327 34.44 117.543 32.36C118.759 30.248 120.423 28.632 122.535 27.512C124.647 26.392 127.015 25.832 129.639 25.832C132.263 25.832 134.631 26.392 136.743 27.512C138.855 28.632 140.519 30.248 141.735 32.36C142.951 34.44 143.559 36.856 143.559 39.608C143.559 42.36 142.935 44.792 141.687 46.904C140.471 48.984 138.791 50.584 136.647 51.704C134.535 52.824 132.167 53.384 129.543 53.384ZM129.543 46.28C131.111 46.28 132.439 45.704 133.527 44.552C134.647 43.4 135.207 41.752 135.207 39.608C135.207 37.464 134.663 35.816 133.575 34.664C132.519 33.512 131.207 32.936 129.639 32.936C128.039 32.936 126.711 33.512 125.655 34.664C124.599 35.784 124.071 37.432 124.071 39.608C124.071 41.752 124.583 43.4 125.607 44.552C126.663 45.704 127.975 46.28 129.543 46.28ZM162.842 46.04V53H158.666C155.69 53 153.37 52.28 151.706 50.84C150.042 49.368 149.21 46.984 149.21 43.688V33.032H145.946V26.216H149.21V19.688H157.418V26.216H162.794V33.032H157.418V43.784C157.418 44.584 157.61 45.16 157.994 45.512C158.378 45.864 159.018 46.04 159.914 46.04H162.842ZM179.606 53.384C176.982 53.384 174.614 52.824 172.502 51.704C170.422 50.584 168.774 48.984 167.558 46.904C166.374 44.824 165.782 42.392 165.782 39.608C165.782 36.856 166.39 34.44 167.605 32.36C168.822 30.248 170.486 28.632 172.598 27.512C174.71 26.392 177.078 25.832 179.702 25.832C182.326 25.832 184.694 26.392 186.806 27.512C188.918 28.632 190.582 30.248 191.798 32.36C193.014 34.44 193.622 36.856 193.622 39.608C193.622 42.36 192.998 44.792 191.75 46.904C190.534 48.984 188.854 50.584 186.71 51.704C184.598 52.824 182.23 53.384 179.606 53.384ZM179.606 46.28C181.174 46.28 182.502 45.704 183.59 44.552C184.71 43.4 185.27 41.752 185.27 39.608C185.27 37.464 184.726 35.816 183.638 34.664C182.582 33.512 181.27 32.936 179.702 32.936C178.102 32.936 176.774 33.512 175.718 34.664C174.662 35.784 174.134 37.432 174.134 39.608C174.134 41.752 174.646 43.4 175.67 44.552C176.726 45.704 178.038 46.28 179.606 46.28Z" fill="black"/>
</svg>
