<svg width="44" height="45" viewBox="0 0 44 45" fill="none" xmlns="http://www.w3.org/2000/svg">
<path d="M37.4098 6.60789C33.2946 2.48289 27.8143 0.214142 21.9902 0.214142C9.96875 0.214142 0.186607 9.99628 0.186607 22.0177C0.186607 25.8579 1.18839 29.6097 3.09375 32.9195L0 44.2141L11.5598 41.1793C14.742 42.9177 18.3268 43.8311 21.9804 43.8311H21.9902C34.0018 43.8311 44 34.049 44 22.0275C44 16.2034 41.525 10.7329 37.4098 6.60789ZM21.9902 40.1579C18.7295 40.1579 15.5375 39.2838 12.758 37.6338L12.1 37.2409L5.24464 39.0382L7.07143 32.3499L6.63929 31.6624C4.82232 28.7749 3.86964 25.4454 3.86964 22.0177C3.86964 12.0293 12.0018 3.89718 22 3.89718C26.842 3.89718 31.3893 5.78289 34.8071 9.21057C38.225 12.6382 40.3268 17.1856 40.317 22.0275C40.317 32.0257 31.9786 40.1579 21.9902 40.1579ZM31.9295 26.5847C31.3893 26.3097 28.708 24.9936 28.2071 24.8168C27.7063 24.6302 27.3429 24.5418 26.9795 25.0918C26.6161 25.6418 25.575 26.8597 25.2509 27.2329C24.9366 27.5963 24.6125 27.6454 24.0723 27.3704C20.8705 25.7695 18.7688 24.5124 16.6571 20.8882C16.0973 19.9257 17.217 19.9945 18.258 17.9124C18.4348 17.549 18.3464 17.2347 18.2089 16.9597C18.0714 16.6847 16.9813 14.0034 16.5295 12.9132C16.0875 11.8525 15.6357 11.9999 15.3018 11.9802C14.9875 11.9606 14.6241 11.9606 14.2607 11.9606C13.8973 11.9606 13.308 12.0981 12.8071 12.6382C12.3062 13.1882 10.9018 14.5043 10.9018 17.1856C10.9018 19.8668 12.8563 22.4597 13.1214 22.8231C13.3964 23.1865 16.9616 28.6865 22.4321 31.0534C25.8893 32.5463 27.2446 32.674 28.9732 32.4186C30.0241 32.2615 32.1946 31.1025 32.6464 29.8257C33.0982 28.549 33.0982 27.4588 32.9607 27.2329C32.833 26.9874 32.4696 26.8499 31.9295 26.5847Z" fill="#838383"/>
</svg>
